IKResults
version=1
nRows=17
nColumns=40
inDegrees=yes

Units are S.I. units (second, meters, Newtons, ...)
Angles are in degrees.

endheader
time	pelvis_tilt	pelvis_list	pelvis_rotation	pelvis_tx	pelvis_ty	pelvis_tz	hip_flexion_r	hip_adduction_r	hip_rotation_r	knee_angle_r	knee_angle_r_beta	ankle_angle_r	subtalar_angle_r	mtp_angle_r	hip_flexion_l	hip_adduction_l	hip_rotation_l	knee_angle_l	knee_angle_l_beta	ankle_angle_l	subtalar_angle_l	mtp_angle_l	lumbar_extension	lumbar_bending	lumbar_rotation	arm_flex_r	arm_add_r	arm_rot_r	elbow_flex_r	pro_sup_r	wrist_flex_r	wrist_dev_r	arm_flex_l	arm_add_l	arm_rot_l	elbow_flex_l	pro_sup_l	wrist_flex_l	wrist_dev_l
      0.60000000	     19.03436132	      4.80626330	     -6.39097242	      0.18247054	      0.91881428	      1.00009920	    -15.74115205	    -10.28423146	     -5.36637806	    -63.52558438	     -1.10873061	    -14.74258205	    -17.39966387	     17.31068740	      2.65507265	     -7.05836041	      8.78878542	    -31.15546194	     -0.54376539	      9.52059577	     12.45622110	     -3.13338319	    -22.83968809	    -10.61614527	      3.28473000	     -7.36381910	    -13.77531994	     -1.20757576	     56.93872399	     89.95437384	      0.00000000	      0.00000000	    -13.15216724	     10.29940294	     17.48930567	      8.58101634	     89.95437384	      0.00000000	      0.00000000
      0.61000000	     19.55324805	      4.40638487	     -6.43232592	      0.19770993	      0.92207274	      0.99968601	    -14.59536062	     -9.67963865	     -4.82874909	    -64.49978904	     -1.12573369	    -11.78314625	    -17.11811747	     17.28250936	      0.72210042	     -6.97350264	      8.40987777	    -30.85757724	     -0.53856632	     10.28305383	     12.39369472	     -2.50398791	    -23.41757613	    -10.20103216	      3.17800449	     -7.41760280	    -13.58580486	     -0.77653598	     55.26162972	     89.95437384	      0.00000000	      0.00000000	    -12.27723885	     10.27003892	     15.78455557	      8.88008977	     89.95437384	      0.00000000	      0.00000000
      0.62000000	     19.75081964	      3.90251403	     -6.38959501	      0.21261558	      0.92512875	      0.99934006	    -13.05424314	     -8.84885575	     -4.35305550	    -65.15332078	     -1.13713997	     -9.69223221	    -17.17659362	     16.72057633	     -0.92216326	     -6.69564180	      7.99669090	    -30.33569736	     -0.52945780	     11.05823599	     12.19830909	     -2.44533790	    -23.67315261	     -9.64269017	      3.04418649	     -7.37876304	    -13.43024232	     -0.13866591	     53.31951028	     89.95437384	      0.00000000	      0.00000000	    -11.21667745	     10.15372065	     15.19317072	      8.98354656	     89.95437384	      0.00000000	      0.00000000
      0.63000000	     20.20470485	      3.21356268	     -6.35461119	      0.22778976	      0.92871692	      0.99884881	    -11.96583535	     -7.84953347	     -3.93808786	    -65.28279982	     -1.13939980	     -7.74440853	    -16.62424217	     16.15597808	     -3.01119084	     -6.30242900	      7.51507022	    -29.58018809	     -0.51627168	     11.78944766	     12.46657142	     -2.27575417	    -24.17052952	     -8.86476222	      3.00502784	     -7.53826938	    -13.48660174	      0.66502055	     51.63008934	     89.95437384	      0.00000000	      0.00000000	    -10.30930481	     10.01446298	     13.83508395	      9.49679660	     89.95437384	      0.00000000	      0.00000000
      0.64000000	     20.23009036	      2.64662862	     -6.21780515	      0.24287385	      0.93175400	      0.99820752	    -10.39696370	     -6.99138489	     -3.81840253	    -65.20658619	     -1.13806962	     -5.98256638	    -16.39040300	     15.49932214	     -4.53758034	     -5.94451197	      7.04875855	    -28.90081581	     -0.50441439	     12.27827480	     12.25236627	     -2.18063870	    -24.15390792	     -8.13829090	      2.92400613	     -7.66952151	    -13.28508246	      1.02985497	     49.54009274	     89.95437384	      0.00000000	      0.00000000	     -9.28668232	      9.89698113	     13.07696355	      9.91526453	     89.95437384	      0.00000000	      0.00000000
      0.65000000	     20.56345197	      1.78589169	     -5.86543886	      0.25824706	      0.93526552	      0.99746073	     -9.46708652	     -5.76205618	     -3.93467179	    -64.51257834	     -1.12595690	     -4.23696025	    -16.12899310	     14.94870782	     -6.60361830	     -5.31852051	      6.23045738	    -27.95519703	     -0.48791023	     12.78159139	     12.77344473	     -2.05399099	    -24.46802091	     -7.04102373	      2.78159520	     -7.99519813	    -13.25502514	      1.52607098	     47.78391369	     89.95437384	      0.00000000	      0.00000000	     -8.41989001	      9.79194516	     11.82310127	     10.76732265	     89.95437384	      0.00000000	      0.00000000
      0.66000000	     20.33099796	      1.27319317	     -5.60263918	      0.27345242	      0.93762750	      0.99675242	     -7.74896915	     -4.98976305	     -4.17717931	    -63.91888942	     -1.11559507	     -2.26604742	    -15.95711029	     14.33326141	     -7.88664761	     -4.87971853	      6.17237639	    -27.06881284	     -0.47243991	     13.31652365	     12.55075041	     -2.03028622	    -24.11742201	     -6.30589970	      2.65809436	     -8.28184179	    -13.04433984	      1.79761809	     45.71394411	     89.95437384	      0.00000000	      0.00000000	     -7.48884694	      9.69450906	     11.34178574	     11.55021198	     89.95437384	      0.00000000	      0.00000000
      0.67000000	     20.76717580	      0.47375292	     -5.13362795	      0.28896623	      0.94099848	      0.99575284	     -7.12434612	     -3.98320911	     -4.74388211	    -62.54841697	     -1.09167582	     -0.86662955	    -15.93318199	     14.06024900	    -10.25073381	     -4.26009069	      5.47633324	    -25.69218389	     -0.44841320	     13.59547214	     12.97089032	     -2.12063606	    -24.49646884	     -5.21810790	      2.43887409	     -8.68035757	    -13.03011409	      2.15945212	     43.94158002	     89.95437384	      0.00000000	      0.00000000	     -6.78495041	      9.60189352	     10.42800790	     12.92375451	     89.95437384	      0.00000000	      0.00000000
      0.68000000	     20.79227356	     -0.01246747	     -4.79881088	      0.30418455	      0.94333147	      0.99480729	     -5.89314200	     -3.39266243	     -5.32430111	    -61.25129552	     -1.06903678	      0.43999066	    -15.90536287	     13.84647977	    -12.03415266	     -3.85876111	      5.14595861	    -24.46003992	     -0.42690823	     13.76883122	     12.81913677	     -2.17591007	    -24.42704385	     -4.48645604	      2.20579951	     -9.04120841	    -12.89396295	      2.31635025	     42.06074784	     89.95437384	      0.00000000	      0.00000000	     -6.00423581	      9.54784338	      9.78773336	     14.21146014	     89.95437384	      0.00000000	      0.00000000
      0.69000000	     20.74635663	     -0.45214938	     -4.37260356	      0.31943230	      0.94521283	      0.99366910	     -4.63799346	     -2.91143375	     -6.09793077	    -59.75896600	     -1.04299071	      1.31751226	    -16.12044872	     13.84804840	    -13.68076921	     -3.40581324	      5.04316282	    -23.30290752	     -0.40671246	     13.94607089	     12.44785575	     -2.21437003	    -24.27660448	     -3.74213818	      1.87746967	     -9.46383234	    -12.78439645	      2.38576059	     40.25958642	     89.95437384	      0.00000000	      0.00000000	     -5.30014793	      9.48767219	      9.35534086	     15.74262386	     89.95437384	      0.00000000	      0.00000000
      0.70000000	     20.66562771	     -0.78225226	     -3.93109943	      0.33433169	      0.94671479	      0.99257606	     -3.41515215	     -2.56986565	     -6.93867816	    -58.01269090	     -1.01251246	      2.15155212	    -16.37337851	     14.03873016	    -15.24253000	     -3.06113926	      4.82570491	    -22.18472617	     -0.38719652	     14.05503190	     11.92676625	     -2.13452780	    -24.12844800	     -3.13105134	      1.52311386	     -9.81255832	    -12.59732725	      2.29052500	     38.40243596	     89.95437384	      0.00000000	      0.00000000	     -4.57065550	      9.49356150	      8.85702341	     17.34857662	     89.95437384	      0.00000000	      0.00000000
      0.71000000	     20.19848546	     -0.98071544	     -3.55344258	      0.34902273	      0.94705758	      0.99144022	     -1.64986302	     -2.44437394	     -7.78837149	    -56.38753304	     -0.98414811	      3.02351315	    -16.44765123	     13.86904044	    -16.15106686	     -2.78910245	      4.96496959	    -21.35103486	     -0.37264586	     14.38002155	     11.34480489	     -2.12392403	    -23.58411584	     -2.63684721	      1.16014465	    -10.17595457	    -12.46507178	      2.18268364	     36.59606440	     89.95437384	      0.00000000	      0.00000000	     -3.80326608	      9.47333579	      8.57548782	     18.91054030	     89.95437384	      0.00000000	      0.00000000
      0.72000000	     20.39928952	     -1.42127096	     -2.70939705	      0.36413029	      0.94817730	      0.99000221	     -1.07737635	     -2.06626877	     -9.12162461	    -53.97046095	     -0.94196224	      3.43920723	    -16.66913099	     14.24554146	    -17.95708716	     -2.16585763	      4.54491474	    -20.20557602	     -0.35265383	     14.45682139	     10.82066117	     -2.21000182	    -23.75586563	     -1.79767893	      0.41741112	    -10.56384286	    -12.26737429	      1.84208381	     34.90003163	     89.95437384	      0.00000000	      0.00000000	     -3.35036570	      9.62633483	      7.90014749	     21.16145323	     89.95437384	      0.00000000	      0.00000000
      0.73000000	     20.27692022	     -1.64622801	     -2.05767248	      0.37885183	      0.94832157	      0.98864069	     -0.03737234	     -1.92589885	    -10.20538099	    -51.65074370	     -0.90147554	      4.30936474	    -16.53253011	     17.10142606	    -19.23204195	     -1.84092565	      3.95111803	    -19.36569350	     -0.33799511	     14.58959678	     10.86403542	     -3.17811371	    -23.59855880	     -1.21818456	     -0.15138155	    -10.94647067	    -12.12146312	      1.48345718	     33.18583613	     89.95437384	      0.00000000	      0.00000000	     -2.66178910	      9.78788019	      7.11124229	     23.09938516	     89.95437384	      0.00000000	      0.00000000
      0.74000000	     20.05969712	     -1.85919732	     -1.28652448	      0.39344526	      0.94786088	      0.98714738	      1.06277293	     -1.92456033	    -11.65373902	    -49.18728771	     -0.85848012	      4.47395821	    -16.55058686	     16.96329186	    -20.20386272	     -1.40342336	      3.58860406	    -18.88129673	     -0.32954079	     14.89161879	     10.35185789	     -3.24707466	    -23.37370258	     -0.62237360	     -0.89612288	    -11.22376835	    -11.91340970	      0.91140349	     31.41353083	     89.95437384	      0.00000000	      0.00000000	     -2.07632721	      9.96422204	      6.71558978	     25.29995259	     89.95437384	      0.00000000	      0.00000000
      0.75000000	     19.89454807	     -2.08219430	     -0.50059872	      0.40792611	      0.94716571	      0.98576763	      1.96687917	     -1.86126703	    -12.94319290	    -46.43303883	     -0.81040941	      4.29679750	    -16.18535284	     16.82858439	    -21.18029693	     -0.93478922	      3.19548465	    -18.44874964	     -0.32199142	     15.25020319	     10.02764980	     -3.34090052	    -23.21366310	     -0.03577632	     -1.60545521	    -11.49335854	    -11.70586567	      0.18511017	     29.67418018	     89.95437384	      0.00000000	      0.00000000	     -1.42774192	     10.17829890	      6.22356162	     27.43744996	     89.95437384	      0.00000000	      0.00000000
      0.76000000	     19.78898761	     -2.19818863	      0.23655782	      0.42231060	      0.94618261	      0.98446989	      2.77261712	     -2.01069667	    -14.38461916	    -43.62300415	     -0.76136505	      3.40840978	    -15.81149159	     16.80980535	    -22.21275972	     -0.57904214	      2.79045759	    -18.03133780	     -0.31470621	     15.57269859	      9.68717459	     -3.49385373	    -23.12920580	      0.40896491	     -2.26993927	    -11.77354246	    -11.54079846	     -0.54174938	     28.04091461	     89.95437384	      0.00000000	      0.00000000	     -0.75344815	     10.48507308	      5.54069654	     29.65586313	     89.95437384	      0.00000000	      0.00000000
